<?xml version="1.0" encoding="utf-8"?>
<!-- Generator: Adobe Illustrator 27.0.1, SVG Export Plug-In . SVG Version: 6.00 Build 0)  -->
<svg version="1.1" id="Layer_1" xmlns="http://www.w3.org/2000/svg" xmlns:xlink="http://www.w3.org/1999/xlink" x="0px" y="0px"
	 viewBox="0 0 515 158.1" style="enable-background:new 0 0 515 158.1;" xml:space="preserve">
<style type="text/css">
	.st0{enable-background:new    ;}
	.st1{fill:#4D4D4D;}
</style>
<g class="st0">
	<path d="M221.9,112.8V87.6c0-4.2-1.8-7-6.3-7c-3.8,0-7.3,2.6-9,5.1v27h-8.4V87.6c0-4.2-1.8-7-6.4-7c-3.7,0-7.1,2.6-8.9,5.2v27h-8.4
		V74.2h8.4v5.3c1.6-2.4,6.7-6.2,12.6-6.2c5.8,0,9.3,2.9,10.6,7.1c2.2-3.5,7.4-7.1,13.1-7.1c7.1,0,11.1,3.8,11.1,11.7v27.9H221.9z"/>
	<path d="M240.1,62.6c0-2.9,2.4-5.2,5.2-5.2c2.9,0,5.2,2.3,5.2,5.2s-2.3,5.2-5.2,5.2C242.5,67.8,240.1,65.4,240.1,62.6z
		 M241.2,112.8V74.2h8.4v38.6H241.2z"/>
	<path d="M262.1,103.8V81.5h-6.4v-7.4h6.4V63.6h8.4v10.6h7.8v7.4h-7.8v20.2c0,2.6,1.3,4.6,3.7,4.6c1.6,0,3.1-0.6,3.8-1.4l2,6.3
		c-1.5,1.4-4,2.5-7.9,2.5C265.6,113.8,262.1,110.2,262.1,103.8z"/>
</g>
<g class="st0">
</g>
<g class="st0">
	<path class="st1" d="M305.5,62.6c0-2.9,2.4-5.2,5.2-5.2c2.9,0,5.2,2.3,5.2,5.2s-2.3,5.2-5.2,5.2C307.9,67.8,305.5,65.4,305.5,62.6z
		 M306.5,112.8V74.2h8.4v38.6H306.5z"/>
	<path class="st1" d="M329.3,116.6c3.1,3.6,7.1,5,12.2,5c5.5,0,11.4-2.6,11.4-10.5v-4.6c-3,3.8-7.4,6.4-12.4,6.4
		c-9.8,0-17.1-7.1-17.1-19.8c0-12.5,7.2-19.8,17.1-19.8c4.9,0,9.3,2.2,12.4,6.3v-5.4h8.4v36.6c0,13.9-10.3,17.7-19.8,17.7
		c-6.6,0-11.4-1.4-16.2-5.8L329.3,116.6z M353,85.8c-1.8-2.9-6-5.2-9.9-5.2c-6.6,0-10.9,5-10.9,12.4c0,7.4,4.2,12.4,10.9,12.4
		c3.9,0,8.1-2.3,9.9-5.2V85.8z"/>
	<path class="st1" d="M389.4,73.2c11.6,0,19,8.9,19,21v2h-29.8c0.6,5.8,5,10.6,12.3,10.6c3.8,0,8.2-1.5,11-4.2l3.8,5.5
		c-3.8,3.7-9.5,5.6-15.7,5.6c-11.6,0-20.2-8.1-20.2-20.3C369.8,82.2,378,73.2,389.4,73.2z M378.5,90.3h21.8
		c-0.2-4.6-3.3-10.2-10.9-10.2C382.2,80.1,378.9,85.6,378.5,90.3z"/>
	<path class="st1" d="M464.1,112.8V87.6c0-4.2-1.8-7-6.3-7c-3.8,0-7.3,2.6-9,5.1v27h-8.4V87.6c0-4.2-1.8-7-6.4-7
		c-3.7,0-7.1,2.6-8.9,5.2v27h-8.4V74.2h8.4v5.3c1.6-2.4,6.7-6.2,12.6-6.2c5.8,0,9.3,2.9,10.6,7.1c2.2-3.5,7.4-7.1,13.1-7.1
		c7.1,0,11.1,3.8,11.1,11.7v27.9H464.1z"/>
</g>
<path d="M70.2,158.1C31.5,158.1,0,126.6,0,87.8s31.5-70.2,70.2-70.2s70.2,31.5,70.2,70.2S109,158.1,70.2,158.1z M70.2,37.6
	C42.5,37.6,20,60.1,20,87.8s22.5,50.2,50.2,50.2s50.2-22.5,50.2-50.2S98,37.6,70.2,37.6z"/>
</svg>
