<?xml version="1.0" encoding="UTF-8"?><svg id="a" xmlns="http://www.w3.org/2000/svg" viewBox="0 0 500.55 140.5"><g><path d="M212.48,95.74h-7.34l-14.69-36.94v36.94h-10.3V45.34h15.19l13.54,35.14,14.04-35.14h14.91v50.4h-10.3V58.94l-15.05,36.8Z"/><path d="M248.98,95.74V45.34h10.3v50.4h-10.3Z"/><path d="M287.72,54.05v41.69h-10.3V54.05h-11.95v-8.71h34.2v8.71h-11.95Z"/><path d="M323.21,52.61v-8.71h10.22v8.71h-10.22Zm0,43.13V57.86h10.22v37.88h-10.22Z"/><path d="M368.36,75.36v-8.71h22.39v19.66c-5.26,7.06-13.25,10.3-21.96,10.3-15.27,0-26.86-10.58-26.86-26.07s12.03-26.07,26.86-26.07c8.5,0,15.62,3.53,21.17,9.94l-7.13,6.19c-3.53-4.1-8.28-7.13-14.04-7.13-9.14,0-15.84,7.49-15.84,17.07,0,10.08,6.26,17.07,15.84,17.07,4.1,0,8.5-1.66,11.67-4.68v-7.56h-12.1Z"/><path d="M401.12,95.74V45.34h32.33v8.71h-22.03v11.38h22.03v8.71h-22.03v12.89h22.03v8.71h-32.33Z"/><path d="M475.21,95.74h-7.34l-14.69-36.94v36.94h-10.3V45.34h15.19l13.54,35.14,14.04-35.14h14.91v50.4h-10.3V58.94l-15.05,36.8Z"/></g><path d="M70.25,140.5C31.51,140.5,0,108.99,0,70.25S31.51,0,70.25,0s70.25,31.51,70.25,70.25-31.51,70.25-70.25,70.25Zm0-120.5c-27.71,0-50.25,22.54-50.25,50.25s22.54,50.25,50.25,50.25,50.25-22.54,50.25-50.25-22.54-50.25-50.25-50.25Z"/></svg>